<svg xmlns="http://www.w3.org/2000/svg" viewBox="0 0 1440 800">
  <!-- White = visible area -->
  <rect width="1440" height="800" fill="#fff"/>

  <!-- Black = hidden teeth cutting off bottom -->
  <path fill="#000" d="
    M0,800 L0,700
    L30,800 L60,700 L90,800 L120,700 L150,800 L180,700 L210,800 L240,700
    L270,800 L300,700 L330,800 L360,700 L390,800 L420,700 L450,800 L480,700
    L510,800 L540,700 L570,800 L600,700 L630,800 L660,700 L690,800 L720,700
    L750,800 L780,700 L810,800 L840,700 L870,800 L900,700 L930,800 L960,700
    L990,800 L1020,700 L1050,800 L1080,700 L1110,800 L1140,700 L1170,800 L1200,700
    L1230,800 L1260,700 L1290,800 L1320,700 L1350,800 L1380,700 L1410,800 L1440,700
    L1440,800 Z"/>
</svg>
